<svg width="23" height="20" viewBox="0 0 23 20" fill="none" xmlns="http://www.w3.org/2000/svg">
<path d="M12.4453 10.8081L13.4256 11.4728C14.0018 10.7966 14.1198 9.84661 13.7246 9.05371L12.7463 9.77218C12.8435 10.1463 12.7274 10.5428 12.4453 10.8081Z" fill="white"/>
<path d="M10.2236 11.7132C9.86227 11.4007 9.61132 10.9829 9.50722 10.5193C9.2377 9.31941 10.0038 8.13038 11.2168 7.86346V7.17417L8.26868 3.78941C8.18016 3.68776 8.13143 3.55823 8.13143 3.42378C8.13143 3.1139 8.38537 2.86272 8.69865 2.86272H11.2168V0H12.1918V2.86272H14.71C14.846 2.86272 14.9776 2.91092 15.0797 2.99848C15.3174 3.2008 15.3439 3.55495 15.14 3.78941L12.1918 7.17417V8.41304C12.1918 8.72293 11.9386 8.97411 11.6246 8.97411H11.7042C11.1098 8.97411 10.6297 9.44992 10.6297 10.0372C10.6297 10.3878 10.8044 10.7157 11.0968 10.9141L19.9967 16.9418H22.5V20H0V16.9418H2.50328L10.2236 11.7132ZM11.0541 12.1677L4.00538 16.9418H18.4946L11.5818 12.2602C11.4032 12.2497 11.2258 12.2192 11.0541 12.1677Z" fill="white"/>
</svg>
