<svg width="22" height="20" viewBox="0 0 22 20" fill="none" xmlns="http://www.w3.org/2000/svg">
<path d="M14.6892 6.35777C14.6517 6.32976 14.6144 6.30236 14.5768 6.27436C13.4631 5.44057 12.28 4.40923 11.0709 3.06951C9.80443 1.66648 8.50832 0.780338 7.26932 0.338332C7.23175 0.324938 7.19448 0.313066 7.15691 0.300585C2.32679 -1.32223 -1.58722 3.80589 0.642417 11.3443C1.21212 13.27 2.05553 14.7169 3.36631 15.8128L1.72043 18.9004C1.52554 19.2651 1.66483 19.7187 2.0314 19.9126C2.39766 20.1062 2.85251 19.9674 3.04679 19.6024L4.61019 16.6691C5.3421 17.0846 6.18551 17.4332 7.15661 17.7285C7.19387 17.7397 7.23114 17.751 7.26902 17.7622C8.36566 18.088 9.62329 18.3473 11.0706 18.5561C12.3234 18.737 13.4961 18.7732 14.5765 18.6922C14.6141 18.6898 14.6514 18.6867 14.6889 18.6837C15.6194 18.6064 16.4796 18.4417 17.257 18.2043L18.0021 19.6021C18.1964 19.9668 18.6512 20.1056 19.0175 19.9123C19.3837 19.7184 19.523 19.2648 19.3284 18.9001L18.6643 17.6539C20.7104 16.6575 21.924 15.0807 21.9949 13.3854C22.1458 9.79123 18.9289 9.49382 14.6892 6.35777ZM18.8097 14.6155C18.6943 15.5854 16.958 16.2241 14.5768 16.3087C13.7646 16.3376 12.8778 16.3023 11.9534 16.1927C10.0742 15.9705 8.41362 15.4871 7.26932 14.8926C6.20262 14.3385 5.58373 13.6877 5.65857 13.06C5.72486 12.5048 6.32358 12.0585 7.26932 11.762C8.53825 11.3641 10.4337 11.2366 12.5146 11.4828C13.2407 11.5687 13.9332 11.6938 14.5768 11.8487C17.1532 12.4697 18.9335 13.5754 18.8097 14.6155Z" fill="white"/>
</svg>
