<svg viewBox="0 0 21 14" xmlns="http://www.w3.org/2000/svg">
  <path d="M10.4537 9.87624C11.9598 9.87624 13.1808 8.62914 13.1808 7.09075C13.1808 5.55237 11.9598 4.30527 10.4537 4.30527C8.94753 4.30527 7.72656 5.55237 7.72656 7.09075C7.72656 8.62914 8.94753 9.87624 10.4537 9.87624Z" />
  <path d="M10.4551 0.590851C5.00041 0.590851 0.455078 6.62645 0.455078 7.09085C0.455078 7.5548 5.00041 13.5909 10.4551 13.5909C15.9095 13.5909 20.4551 7.55525 20.4551 7.09085C20.4551 6.62622 15.9097 0.590851 10.4551 0.590851ZM10.4551 11.7335C7.94397 11.7335 5.90974 9.65526 5.90974 7.09085C5.90974 4.52576 7.94397 2.44822 10.4551 2.44822C12.966 2.44822 15.0004 4.52576 15.0004 7.09085C15.0004 9.65526 12.966 11.7335 10.4551 11.7335Z" />
</svg>
