<svg viewBox="0 0 19 21" xmlns="http://www.w3.org/2000/svg">
  <path d="M10.0504 17.5249L2.38692 14.1214L5.17937 12.762C4.89861 12.4927 4.56818 12.1347 4.33149 11.8604L0.710713 13.6229C0.255907 13.8445 0.269142 14.4729 0.730668 14.6772L11.2342 19.3417C10.8157 18.7839 10.4012 18.1565 10.0504 17.5249Z"/>
  <path d="M6.44263 0.590881C4.12974 0.590881 2.24805 2.39581 2.24805 4.61433C2.24805 8.25269 5.85706 11.7563 6.01071 11.9036C6.24923 12.1325 6.63603 12.1325 6.87459 11.9036C7.0282 11.7563 10.6373 8.25269 10.6373 4.61433C10.6372 2.39581 8.75551 0.590881 6.44263 0.590881ZM6.42255 6.31355C5.44574 6.31355 4.65105 5.55128 4.65105 4.61433C4.65105 3.67737 5.44574 2.9151 6.42255 2.9151C7.39936 2.9151 8.19405 3.67737 8.19405 4.61433C8.19405 5.55128 7.39936 6.31355 6.42255 6.31355Z"/>
  <path d="M6.42282 4.08707C6.11967 4.08707 5.87305 4.32363 5.87305 4.61441C5.87305 4.90519 6.11967 5.14176 6.42282 5.14176C6.72597 5.14176 6.9726 4.90519 6.9726 4.61441C6.9726 4.32363 6.72597 4.08707 6.42282 4.08707Z"/>
  <path d="M14.1829 9.10645C11.87 9.10645 9.98828 10.9114 9.98828 13.1299C9.98828 16.7683 13.5973 20.2719 13.7509 20.4192C13.9895 20.648 14.3763 20.6481 14.6148 20.4192C14.7684 20.2719 18.3775 16.7683 18.3775 13.1299C18.3774 10.9114 16.4957 9.10645 14.1829 9.10645ZM14.1628 14.8486C13.186 14.8486 12.3913 14.0864 12.3913 13.1494C12.3913 12.2125 13.186 11.4502 14.1628 11.4502C15.1396 11.4502 15.9343 12.2125 15.9343 13.1494C15.9343 14.0864 15.1396 14.8486 14.1628 14.8486Z"/>
  <path d="M14.1631 12.6221C13.8599 12.6221 13.6133 12.8587 13.6133 13.1494C13.6133 13.4402 13.8599 13.6768 14.1631 13.6768C14.4662 13.6768 14.7128 13.4402 14.7128 13.1494C14.7128 12.8587 14.4662 12.6221 14.1631 12.6221Z"/>
</svg>
