<svg width="15" height="16" viewBox="0 0 15 16" fill="none" xmlns="http://www.w3.org/2000/svg">
<path d="M7.2 0C3.2296 0 0 3.2296 0 7.2C0 9.8624 1.456 12.1856 3.6104 13.432L1.9568 14.5344C1.814 14.6296 1.7056 14.7682 1.64763 14.9298C1.58966 15.0914 1.58518 15.2673 1.63487 15.4316C1.68455 15.5959 1.78575 15.7398 1.92353 15.8422C2.06131 15.9445 2.22836 15.9999 2.4 16H12C12.1717 16 12.3389 15.9448 12.4768 15.8425C12.6147 15.7402 12.716 15.5963 12.7658 15.4319C12.8156 15.2676 12.8112 15.0916 12.7532 14.93C12.6953 14.7684 12.5869 14.6297 12.444 14.5344L10.7904 13.432C12.944 12.1856 14.4 9.8624 14.4 7.2C14.4 3.2296 11.1704 0 7.2 0ZM7.2 12.8C4.1128 12.8 1.6 10.2872 1.6 7.2C1.6 4.1128 4.1128 1.6 7.2 1.6C10.2872 1.6 12.8 4.1128 12.8 7.2C12.8 10.2872 10.2872 12.8 7.2 12.8Z" />
<path d="M7.2002 3.20007C4.9946 3.20007 3.2002 4.99447 3.2002 7.20007C3.2002 9.40567 4.9946 11.2001 7.2002 11.2001C9.4058 11.2001 11.2002 9.40567 11.2002 7.20007C11.2002 4.99447 9.4058 3.20007 7.2002 3.20007ZM6.0002 7.20007C5.84256 7.20002 5.68647 7.16892 5.54085 7.10855C5.39523 7.04817 5.26293 6.95971 5.1515 6.8482C4.92646 6.62301 4.80009 6.31764 4.8002 5.99927C4.80025 5.84163 4.83135 5.68555 4.89172 5.53993C4.9521 5.39431 5.04056 5.26201 5.15207 5.15058C5.37726 4.92554 5.68263 4.79917 6.001 4.79927C6.31936 4.79938 6.62465 4.92595 6.84969 5.15115C7.07473 5.37634 7.2011 5.68171 7.201 6.00007C7.20089 6.31844 7.07432 6.62372 6.84912 6.84877C6.62393 7.07381 6.31856 7.20018 6.0002 7.20007Z" />
</svg>
